# xmcd
#
# Track frame offsets:
#	150
#	19670
#	34453
#	50085
#	63471
#	83408
#	100480
#	123392
#	150288
#	166784
#	188066
#	206074
#	224068
#
# Disc length: 3202 seconds
#
# Revision: 1
# Processed by: cddbd v1.5.2PL0 Copyright (c) Steve Scherf et al.
# Submitted via: audiograbber 1.83.01
#
DISCID=b20c800d
DTITLE=Ben Coulter - Return to my roots - The Blues Album
DYEAR=2009
DGENRE=Blues
TTITLE0=Walkin Blues
TTITLE1=Mr. Guitar Man
TTITLE2=Got my Mojo Back again
TTITLE3=Roll on Train
TTITLE4=Headed down to Georgia
TTITLE5=Hey pretty moma
TTITLE6=Delta Blues
TTITLE7=Got the Devil on my Heels
TTITLE8=Mississippi Woman
TTITLE9=That's my Baby
TTITLE10=Highway 61 Blues
TTITLE11=Why do I always have the blues
TTITLE12=By his blood
EXTD=
EXTT0=
EXTT1=
EXTT2=
EXTT3=
EXTT4=
EXTT5=
EXTT6=
EXTT7=
EXTT8=
EXTT9=
EXTT10=
EXTT11=
EXTT12=
PLAYORDER=
